<svg width="224" height="42" viewBox="0 0 224 42" fill="none" xmlns="http://www.w3.org/2000/svg">
<g clip-path="url(#clip0_937_15446)">
<g clip-path="url(#clip1_937_15446)">
<path d="M38.5816 8.17364V35.832C38.5816 36.9468 38.1388 38.0158 37.3506 38.804C36.5624 39.5923 35.4933 40.0351 34.3786 40.0351H6.73886C5.79435 40.0334 4.87795 39.7136 4.13745 39.1273C3.39695 38.541 2.87551 37.7224 2.65723 36.8034L2.76931 36.8454C3.23004 37.0057 3.71528 37.0839 4.20302 37.0766H31.8497C32.4017 37.0766 32.9482 36.9679 33.4582 36.7567C33.9681 36.5455 34.4315 36.2359 34.8218 35.8456C35.212 35.4553 35.5216 34.9919 35.7329 34.482C35.9441 33.9721 36.0528 33.4255 36.0528 32.8736V5.24318C36.0534 4.9593 36.0252 4.67609 35.9687 4.3979C35.9687 4.3582 35.9524 4.3185 35.9431 4.27881C36.7211 4.59085 37.3881 5.12843 37.8583 5.82248C38.3285 6.51653 38.5804 7.33532 38.5816 8.17364Z" fill="white"/>
<path d="M35.8963 4.15527C35.9079 4.19263 35.9173 4.23233 35.9266 4.26969C35.9359 4.30705 35.943 4.34908 35.9523 4.38878C36.7012 4.69866 37.3414 5.22367 37.792 5.89741C38.2425 6.57114 38.4832 7.36335 38.4835 8.17386V35.8323C38.4822 36.9181 38.0503 37.9591 37.2825 38.7269C36.5147 39.4948 35.4737 39.9267 34.3878 39.9279H6.73875C5.82797 39.927 4.94341 39.6228 4.22464 39.0635C3.50586 38.5041 2.99379 37.7213 2.76921 36.8387L2.65713 36.7966L2.54504 36.7523C2.7563 37.7094 3.28815 38.5657 4.05251 39.1793C4.81688 39.7929 5.7679 40.1271 6.74809 40.1264H34.3878C35.5259 40.1245 36.6168 39.6714 37.4213 38.8665C38.2259 38.0615 38.6784 36.9703 38.6796 35.8323V8.17386C38.6791 7.30052 38.4124 6.44809 37.9151 5.73014C37.4179 5.0122 36.7136 4.46284 35.8963 4.15527Z" fill="black"/>
<path d="M36.0365 5.24358V32.8833C36.0365 33.4353 35.9278 33.9818 35.7165 34.4917C35.5053 35.0017 35.1957 35.465 34.8054 35.8553C34.4151 36.2456 33.9518 36.5552 33.4419 36.7664C32.9319 36.9776 32.3854 37.0864 31.8334 37.0864H4.20305C3.71656 37.0868 3.23373 37.0023 2.77635 36.8365L2.66427 36.7945L2.55219 36.7501C1.79468 36.4266 1.14893 35.8876 0.695184 35.2001C0.241439 34.5127 -0.000301653 33.707 2.82495e-07 32.8833V5.24358C2.82495e-07 4.12886 0.44282 3.0598 1.23105 2.27157C2.01927 1.48335 3.08833 1.04053 4.20305 1.04053L31.8498 1.04053C32.7739 1.04188 33.6718 1.34776 34.4046 1.91085C35.1374 2.47394 35.6641 3.26283 35.9034 4.15545C35.9151 4.19282 35.9244 4.23251 35.9337 4.26987C35.9431 4.30723 35.9501 4.34926 35.9594 4.38896C36.0142 4.67046 36.04 4.95682 36.0365 5.24358Z" fill="black"/>
<path d="M27.4602 11.4121L26.9021 16.3693C25.872 16.1804 24.8807 15.8205 23.9693 15.3046C23.0527 14.792 22.1973 14.1771 21.4194 13.4716C21.4194 14.1464 21.4194 14.8049 21.4358 15.4447C21.4521 16.0845 21.4545 16.7079 21.4545 17.3127V30.5803H14.5825V17.3127C14.5825 16.7071 14.5887 16.0845 14.6012 15.4447C14.6136 14.8049 14.6198 14.1472 14.6198 13.4716C13.8411 14.176 12.9858 14.7908 12.07 15.3046C11.1584 15.8202 10.1672 16.18 9.13719 16.3693L8.57678 11.4121C9.24154 11.3482 9.89399 11.191 10.5149 10.9451C11.218 10.6845 11.9009 10.3723 12.558 10.011C13.1965 9.66138 13.8042 9.25831 14.3747 8.80617C14.8427 8.44414 15.2543 8.01446 15.5959 7.53125H20.4411C20.7829 8.01503 21.1953 8.44479 21.6646 8.80617C22.2339 9.25883 22.8409 9.66193 23.4789 10.011C24.136 10.3723 24.819 10.6845 25.5221 10.9451C26.143 11.1908 26.7954 11.348 27.4602 11.4121Z" fill="white"/>
<path d="M54.7141 13.1654C56.0521 13.1654 57.2068 13.437 58.1781 13.9802C59.1438 14.516 59.9247 15.3316 60.418 16.3196C60.94 17.3372 61.2009 18.562 61.2009 19.9939C61.2009 21.4258 60.94 22.6506 60.418 23.6682C59.9241 24.6559 59.1434 25.4713 58.1781 26.0076C57.2081 26.5496 56.0534 26.8206 54.7141 26.8206C53.5057 26.8519 52.3096 26.572 51.2407 26.0076C50.2701 25.474 49.4844 24.6582 48.9876 23.6682C48.4657 22.6506 48.2047 21.4258 48.2047 19.9939C48.2047 18.562 48.4657 17.3372 48.9876 16.3196C49.4839 15.3292 50.2697 14.5133 51.2407 13.9802C52.3094 13.4152 53.5056 13.1346 54.7141 13.1654ZM54.7141 15.8765C54.1372 15.8575 53.5689 16.019 53.0881 16.3384C52.6193 16.6824 52.2684 17.1632 52.0837 17.7146C51.8377 18.4485 51.7232 19.2202 51.7457 19.9939C51.7261 20.7641 51.8418 21.5318 52.0874 22.262C52.2704 22.8169 52.6215 23.3011 53.0919 23.6476C53.5726 23.967 54.141 24.1284 54.7178 24.1095C55.2919 24.1299 55.8578 23.9682 56.3344 23.6476C56.7999 23.2982 57.1471 22.8147 57.3295 22.262C57.5752 21.5318 57.6908 20.7641 57.6712 19.9939C57.6924 19.22 57.5768 18.4483 57.3295 17.7146C57.1454 17.1653 56.7983 16.6853 56.3344 16.3384C55.8567 16.017 55.2894 15.8553 54.7141 15.8765Z" fill="black"/>
<path d="M63.2888 26.6141V16.5806H66.3417L66.5294 20.0333L66.1539 19.6578C66.2574 19.0104 66.5009 18.3934 66.8674 17.8498C67.1942 17.381 67.6366 17.0046 68.1516 16.7571C68.6945 16.5018 69.2884 16.3733 69.8883 16.3816C70.5178 16.366 71.1415 16.5039 71.7058 16.7833C72.2199 17.0481 72.643 17.4607 72.9205 17.9681C73.235 18.5748 73.387 19.2527 73.3617 19.9357V26.6141H69.9352V20.8369C69.9352 20.1404 69.8019 19.6597 69.5335 19.3912C69.3995 19.2577 69.2396 19.1532 69.0636 19.084C68.8875 19.0149 68.6992 18.9827 68.5102 18.9894C68.1944 18.988 67.8835 19.0675 67.6071 19.2204C67.3134 19.3871 67.0811 19.6438 66.9444 19.9526C66.7655 20.378 66.6828 20.8377 66.7022 21.2988V26.6141H63.2888Z" fill="black"/>
<path d="M80.618 26.8206C79.6282 26.845 78.6471 26.6319 77.7566 26.1991C76.967 25.8076 76.313 25.1883 75.8791 24.4211C75.446 23.6513 75.2289 22.7125 75.2276 21.6048C75.1977 20.6255 75.4222 19.6552 75.8791 18.7885C76.3062 18.0267 76.9489 17.4081 77.7266 17.0105C78.5765 16.5797 79.5188 16.3631 80.4715 16.3797C81.406 16.3502 82.3323 16.561 83.162 16.9917C83.8757 17.3813 84.4622 17.9679 84.8518 18.6815C85.2564 19.4372 85.4606 20.284 85.4451 21.1411C85.4451 21.3964 85.4451 21.6405 85.4244 21.8752C85.4148 22.0732 85.3947 22.2706 85.3644 22.4666H77.4262V20.6154H83.8905L82.2439 21.2593C82.2439 20.4558 82.1 19.8399 81.8121 19.4119C81.5242 18.9838 81.0773 18.7691 80.4715 18.7679C80.0846 18.7567 79.7033 18.862 79.3769 19.0702C79.0543 19.3012 78.8152 19.6306 78.6954 20.0089C78.5254 20.5374 78.4473 21.0912 78.4645 21.6461C78.443 22.1933 78.5317 22.7392 78.7254 23.2514C78.8696 23.6191 79.1301 23.9297 79.4671 24.1357C79.8236 24.3321 80.2262 24.4293 80.633 24.4173C81.0589 24.4385 81.4815 24.3334 81.8478 24.1151C82.153 23.9097 82.3877 23.6154 82.5199 23.2721L85.2517 24.1958C85.0658 24.7554 84.7285 25.2525 84.2773 25.6321C83.7968 26.0365 83.2401 26.3404 82.6401 26.5258C81.9853 26.728 81.3032 26.8274 80.618 26.8206Z" fill="black"/>
<path d="M100.237 16.5806H103.804L100.779 26.6141H96.6826L94.8558 20.4558L93.089 26.6141H89.0129L85.9601 16.5806H89.5537L91.2434 23.9893L93.2111 16.5806H96.5906L98.5301 23.9855L100.237 16.5806Z" fill="black"/>
<path d="M110.637 20.2549C110.659 19.8462 110.519 19.4453 110.247 19.1397C110.11 19.0016 109.946 18.8937 109.766 18.8229C109.585 18.7521 109.391 18.7199 109.197 18.7285C108.797 18.719 108.403 18.8345 108.071 19.059C107.755 19.2805 107.539 19.6729 107.417 20.2343L104.526 19.5527C104.694 18.6173 105.226 17.7867 106.006 17.2434C106.809 16.6664 107.94 16.3785 109.398 16.3797C110.252 16.357 111.102 16.5038 111.899 16.8116C112.548 17.0659 113.102 17.5144 113.486 18.0958C113.87 18.7266 114.062 19.4563 114.038 20.1949V23.8692C114.038 24.3911 114.27 24.6521 114.74 24.6521C114.937 24.6589 115.134 24.6316 115.322 24.5714L115.121 26.5202C114.659 26.7184 114.159 26.8139 113.656 26.8C113.183 26.8092 112.712 26.7243 112.271 26.5503C111.888 26.3959 111.561 26.1296 111.332 25.7861C111.092 25.398 110.972 24.9469 110.99 24.4906V24.3705L111.366 24.2297C111.38 24.7591 111.196 25.2748 110.85 25.6753C110.491 26.0742 110.034 26.3715 109.524 26.5371C108.98 26.7247 108.409 26.8199 107.834 26.8188C107.223 26.832 106.615 26.7229 106.047 26.4977C105.57 26.3086 105.161 25.9817 104.872 25.5589C104.585 25.1061 104.442 24.5774 104.46 24.0419C104.438 23.381 104.672 22.737 105.114 22.2451C105.547 21.7695 106.235 21.4384 107.179 21.2519L110.975 20.4671L110.955 22.2751L109.01 22.6845C108.689 22.7316 108.383 22.8517 108.116 23.0355C108.016 23.1201 107.938 23.2269 107.888 23.3472C107.837 23.4676 107.816 23.5981 107.825 23.7284C107.817 23.8571 107.842 23.9857 107.899 24.1018C107.955 24.2179 108.04 24.3175 108.146 24.3911C108.372 24.5421 108.639 24.6195 108.91 24.6127C109.135 24.6147 109.359 24.5805 109.573 24.5113C109.777 24.4475 109.965 24.3413 110.125 24.1996C110.288 24.0529 110.417 23.8713 110.5 23.6683C110.599 23.4266 110.647 23.1671 110.641 22.906L110.637 20.2549Z" fill="black"/>
<path d="M126.119 16.5808L122.466 26.6142C122.171 27.5086 121.759 28.3597 121.24 29.1451C120.848 29.7309 120.308 30.202 119.674 30.5101C118.991 30.808 118.25 30.9523 117.505 30.9325C116.984 30.936 116.465 30.8729 115.96 30.7448C115.529 30.6404 115.115 30.4714 114.734 30.2435L115.418 27.9341C115.647 28.1049 115.905 28.2321 116.18 28.3096C116.515 28.3909 116.86 28.4281 117.205 28.4204C117.535 28.4328 117.862 28.3638 118.159 28.2195C118.44 28.0431 118.65 27.7723 118.75 27.4554L119.011 26.8339L117.847 24.1021L114.843 16.5732H118.598L120.136 22.2959L120.618 24.4232L121.182 22.2152L122.729 16.5826L126.119 16.5808Z" fill="black"/>
<path d="M143.671 13.3662V16.0379H139.353V26.614H135.9V16.0379H131.563V13.3662H143.671Z" fill="black"/>
<path d="M148.439 26.8205C147.449 26.8449 146.468 26.6318 145.577 26.199C144.787 25.8086 144.133 25.1889 143.7 24.421C143.264 23.6512 143.047 22.7124 143.047 21.6047C143.047 20.497 143.264 19.5582 143.7 18.7884C144.126 18.0261 144.769 17.4074 145.547 17.0104C146.397 16.5834 147.338 16.3701 148.289 16.3889C149.223 16.3595 150.149 16.5702 150.979 17.001C151.692 17.3911 152.279 17.9775 152.669 18.6908C153.073 19.4467 153.276 20.2934 153.26 21.1503C153.26 21.4057 153.26 21.6498 153.24 21.8845C153.231 22.0826 153.211 22.28 153.179 22.4759H145.247V20.6152H151.713L150.067 21.2592C150.067 20.4557 149.923 19.8398 149.635 19.4118C149.347 18.9837 148.902 18.769 148.3 18.7678C147.913 18.756 147.531 18.8614 147.205 19.07C146.881 19.3004 146.642 19.6299 146.522 20.0088C146.352 20.5373 146.274 21.0911 146.291 21.646C146.27 22.1931 146.359 22.7389 146.552 23.2513C146.699 23.6199 146.963 23.9304 147.303 24.1356C147.659 24.332 148.061 24.4293 148.467 24.4172C148.893 24.4386 149.315 24.3335 149.682 24.115C149.987 23.9097 150.223 23.6154 150.356 23.2719L153.086 24.1957C152.9 24.7551 152.564 25.2522 152.113 25.632C151.632 26.0362 151.076 26.3401 150.476 26.5257C149.816 26.7293 149.129 26.8287 148.439 26.8205Z" fill="black"/>
<path d="M155.176 26.6144V16.5809H158.229L158.328 18.5279C158.608 17.8678 159.08 17.3076 159.684 16.9207C160.292 16.5532 160.992 16.3657 161.702 16.38C162.384 16.3633 163.057 16.5369 163.645 16.8813C164.206 17.2284 164.637 17.7503 164.871 18.3664C165.072 17.9445 165.358 17.5687 165.711 17.2624C166.055 16.9668 166.453 16.7417 166.884 16.5997C167.325 16.4534 167.787 16.3793 168.251 16.38C168.863 16.3669 169.469 16.5008 170.018 16.7705C170.531 17.0363 170.954 17.4487 171.232 17.9553C171.553 18.5644 171.709 19.2464 171.685 19.9342V26.6144H168.268V20.7171C168.268 20.075 168.143 19.6263 167.892 19.3709C167.761 19.2434 167.605 19.1442 167.434 19.0796C167.263 19.015 167.08 18.9863 166.897 18.9954C166.575 18.9925 166.258 19.0797 165.983 19.247C165.699 19.4253 165.479 19.6879 165.352 19.998C165.192 20.4 165.116 20.8309 165.131 21.2635V26.6144H161.723V20.7171C161.723 20.075 161.598 19.6263 161.347 19.3709C161.217 19.2449 161.062 19.1467 160.893 19.0821C160.724 19.0176 160.543 18.9881 160.362 18.9954C160.054 18.9955 159.753 19.0786 159.489 19.2357C159.2 19.4136 158.972 19.6757 158.837 19.9867C158.66 20.4094 158.577 20.8656 158.595 21.3235V26.6144H155.176Z" fill="black"/>
<path d="M174.072 30.8369V16.5809H177.146L177.333 20.2139L176.932 19.7933C177.006 19.1677 177.213 18.5653 177.54 18.0266C177.851 17.5296 178.278 17.1158 178.785 16.8212C179.321 16.5188 179.929 16.3664 180.544 16.38C181.312 16.3616 182.068 16.5749 182.712 16.9921C183.353 17.4291 183.852 18.043 184.149 18.7588C184.513 19.6466 184.688 20.6008 184.661 21.5601C184.686 22.53 184.507 23.4944 184.138 24.3914C183.839 25.1227 183.333 25.751 182.682 26.1994C182.036 26.6214 181.277 26.838 180.505 26.8209C179.593 26.8209 178.857 26.5499 178.295 26.0079C177.722 25.4472 177.329 24.728 177.168 23.9427L177.489 23.4601V30.8294L174.072 30.8369ZM179.329 24.3107C179.596 24.3219 179.861 24.2686 180.102 24.1551C180.343 24.0417 180.554 23.8715 180.715 23.6592C181.049 23.2236 181.217 22.5351 181.218 21.5939C181.219 20.6526 181.055 19.9642 180.726 19.5286C180.449 19.1838 180.051 18.9569 179.613 18.8935C179.175 18.8301 178.73 18.9349 178.366 19.1869C178.065 19.4222 177.838 19.7398 177.713 20.1013C177.546 20.5782 177.468 21.0814 177.482 21.5864C177.472 22.0804 177.543 22.5727 177.694 23.0433C177.805 23.4131 178.026 23.7404 178.327 23.9821C178.615 24.2025 178.97 24.3184 179.333 24.3107H179.329Z" fill="black"/>
<path d="M190.037 12.3223V23.2119C190.037 23.6537 190.11 23.9667 190.256 24.1507C190.351 24.2527 190.468 24.3311 190.598 24.3796C190.729 24.4282 190.869 24.4456 191.007 24.4304C191.176 24.4331 191.344 24.4199 191.51 24.391C191.644 24.3647 191.803 24.3234 191.991 24.2708L191.771 26.3192C191.478 26.4858 191.162 26.6074 190.833 26.6797C190.458 26.7719 190.073 26.8192 189.687 26.8205C188.617 26.8205 187.841 26.5702 187.359 26.0695C186.877 25.5688 186.632 24.7615 186.623 23.6475V12.3223H190.037Z" fill="black"/>
<path d="M198.993 20.2548C199.015 19.8458 198.874 19.4449 198.601 19.1395C198.464 19.0008 198.299 18.8925 198.118 18.8216C197.936 18.7508 197.742 18.719 197.547 18.7284C197.147 18.7195 196.753 18.8349 196.421 19.0588C196.1 19.2804 195.878 19.6709 195.752 20.2304L192.861 19.5488C192.945 19.0852 193.119 18.6425 193.374 18.2462C193.628 17.85 193.959 17.5078 194.346 17.2395C195.15 16.6625 196.281 16.3746 197.741 16.3758C198.594 16.3531 199.443 16.4999 200.24 16.8077C200.888 17.062 201.442 17.5105 201.826 18.0919C202.211 18.7227 202.403 19.4524 202.378 20.1909V23.869C202.378 24.391 202.613 24.6519 203.082 24.6519C203.279 24.6586 203.476 24.6313 203.664 24.5712L203.463 26.5201C203.001 26.7184 202.5 26.8139 201.997 26.7998C201.523 26.809 201.052 26.7241 200.611 26.5501C200.229 26.396 199.901 26.1296 199.673 25.786C199.431 25.3983 199.312 24.9468 199.331 24.4905V24.3703L199.706 24.2295C199.723 24.7592 199.54 25.2759 199.194 25.6771C198.836 26.076 198.378 26.3732 197.868 26.5389C197.325 26.7264 196.754 26.8216 196.179 26.8205C195.567 26.8338 194.96 26.7246 194.391 26.4994C193.915 26.3103 193.506 25.9835 193.216 25.5607C192.929 25.1078 192.786 24.5791 192.805 24.0436C192.782 23.3831 193.015 22.7394 193.456 22.2468C193.892 21.7712 194.58 21.4401 195.521 21.2536L199.32 20.4745L199.299 22.2825L197.371 22.6843C197.051 22.7318 196.746 22.8519 196.479 23.0354C196.379 23.1197 196.301 23.2265 196.25 23.3469C196.2 23.4673 196.178 23.598 196.188 23.7282C196.18 23.8569 196.205 23.9856 196.262 24.1016C196.318 24.2177 196.403 24.3174 196.509 24.391C196.734 24.5423 197 24.6197 197.271 24.6125C197.493 24.6134 197.714 24.5791 197.925 24.5111C198.128 24.4465 198.316 24.3403 198.477 24.1995C198.64 24.0523 198.768 23.8708 198.852 23.6681C198.951 23.4265 198.999 23.1669 198.993 22.9058V20.2548Z" fill="black"/>
<path d="M211.802 16.5805V19.01H203.67V16.5805H211.802ZM208.811 13.3887V23.0467C208.811 23.5298 208.928 23.8746 209.162 24.0812C209.437 24.3031 209.784 24.4142 210.137 24.3928C210.418 24.3978 210.699 24.3605 210.97 24.2821C211.199 24.2108 211.412 24.0989 211.601 23.9516L211.963 26.0601C211.579 26.3233 211.151 26.5142 210.698 26.6233C210.187 26.7573 209.661 26.8248 209.132 26.8242C208.458 26.8392 207.788 26.7304 207.153 26.5032C206.625 26.3109 206.174 25.9517 205.869 25.4799C205.569 25.0105 205.411 24.3847 205.398 23.6024V14.3312L208.811 13.3887Z" fill="black"/>
<path d="M218.268 26.8205C217.278 26.8449 216.297 26.6318 215.407 26.199C214.617 25.8075 213.963 25.1882 213.529 24.421C213.096 23.6512 212.879 22.7124 212.878 21.6047C212.848 20.6254 213.072 19.6551 213.529 18.7884C213.956 18.0266 214.599 17.408 215.377 17.0104C216.226 16.5834 217.167 16.3701 218.118 16.3889C219.052 16.3595 219.979 16.5702 220.808 17.001C221.522 17.3906 222.109 17.9771 222.498 18.6908C222.903 19.4465 223.107 20.2933 223.091 21.1503C223.091 21.4057 223.091 21.6498 223.071 21.8845C223.061 22.0825 223.041 22.2799 223.011 22.4759H215.059V20.6152H221.524L219.877 21.2592C219.877 20.4557 219.734 19.8398 219.447 19.4118C219.161 18.9837 218.715 18.769 218.11 18.7678C217.724 18.7566 217.342 18.8619 217.016 19.07C216.693 19.3011 216.454 19.6305 216.334 20.0088C216.164 20.5373 216.086 21.0911 216.103 21.646C216.082 22.1932 216.171 22.7391 216.364 23.2513C216.509 23.619 216.769 23.9296 217.106 24.1356C217.462 24.332 217.865 24.4292 218.272 24.4172C218.698 24.4384 219.12 24.3332 219.487 24.115C219.792 23.9096 220.027 23.6152 220.159 23.2719L222.891 24.1957C222.705 24.7553 222.367 25.2524 221.916 25.632C221.436 26.0364 220.879 26.3403 220.279 26.5257C219.628 26.7267 218.95 26.8262 218.268 26.8205Z" fill="black"/>
</g>
</g>
<defs>
<clipPath id="clip0_937_15446">
<rect width="224" height="41" fill="white" transform="translate(0 0.219238)"/>
</clipPath>
<clipPath id="clip1_937_15446">
<rect width="223.59" height="40" fill="white" transform="translate(0 1.04053)"/>
</clipPath>
</defs>
</svg>
